<?xml version="1.0" standalone="no"?><!DOCTYPE svg PUBLIC "-//W3C//DTD SVG 1.1//EN" "http://www.w3.org/Graphics/SVG/1.1/DTD/svg11.dtd"><svg width="100%" height="100%" viewBox="0 0 72 36" version="1.1" xmlns="http://www.w3.org/2000/svg" xmlns:xlink="http://www.w3.org/1999/xlink" xml:space="preserve" style="fill-rule:evenodd;clip-rule:evenodd;stroke-linejoin:round;stroke-miterlimit:1.41421;"><g id="Layer2"><rect x="10" y="12" width="14" height="14" style="fill:#f0481f;"/><path d="M43.693,22.054c-0.159,0.389 -0.396,0.744 -0.705,1.054c-0.312,0.314 -0.674,0.584 -1.077,0.799c-0.406,0.22 -0.851,0.396 -1.319,0.525c-0.465,0.128 -0.948,0.194 -1.435,0.194c-0.688,0 -1.349,-0.131 -1.965,-0.387c-0.619,-0.257 -1.179,-0.618 -1.667,-1.075c-0.486,-0.455 -0.886,-1.008 -1.191,-1.643c-0.281,-0.583 -0.461,-1.315 -0.535,-2.021l13.606,0l0.028,-0.059c0.022,-0.111 0.039,-0.26 0.051,-0.454c0.01,-0.191 0.016,-0.401 0.016,-0.626c0,-1.082 -0.201,-2.144 -0.595,-3.155c-0.397,-1.011 -0.965,-1.91 -1.691,-2.673c-0.728,-0.762 -1.622,-1.382 -2.658,-1.841c-1.038,-0.459 -2.204,-0.692 -3.462,-0.692c-1.259,0 -2.428,0.227 -3.476,0.676c-1.047,0.449 -1.962,1.068 -2.72,1.84c-0.759,0.771 -1.354,1.681 -1.772,2.703c-0.415,1.021 -0.626,2.121 -0.626,3.265c0,1.146 0.211,2.25 0.626,3.28c0.417,1.034 1.008,1.948 1.755,2.719c0.748,0.773 1.659,1.392 2.706,1.841c1.047,0.448 2.216,0.676 3.476,0.676c0.831,0 1.642,-0.106 2.412,-0.314c0.767,-0.208 1.476,-0.499 2.107,-0.865c0.632,-0.365 1.196,-0.805 1.679,-1.307c0.484,-0.505 0.871,-1.07 1.151,-1.679l0.083,-0.182l-2.744,-0.742l-0.058,0.143ZM39.094,12.374c0.709,0 1.387,0.125 2.016,0.373c0.628,0.248 1.188,0.593 1.664,1.028c0.476,0.435 0.878,0.973 1.193,1.598c0.288,0.571 0.385,0.962 0.461,1.627l-10.69,0c0.073,-0.666 0.247,-1.052 0.517,-1.615c0.294,-0.614 0.684,-1.151 1.161,-1.596c0.475,-0.444 1.034,-0.794 1.662,-1.042c0.629,-0.248 1.307,-0.373 2.016,-0.373Z" style="fill:#1b1b1b;fill-rule:nonzero;"/><path d="M69,4l-20,0l0,3l14,0l-16,19.957l20.003,0l0,-2.948l-14.003,0l16,-20.009Z" style="fill:#1b1b1b;fill-rule:nonzero;"/><path d="M21,11l4,0l0,16l-16,0l0,-4l-9,0l0,-21l21,0l0,9ZM11,13l0,12l12,0l0,-12l-12,0ZM19,11l0,-7l-17,0l0,17l7,0l0,-10l10,0Z" style="fill:#1b1b1b;"/><path d="M69.561,2.638l0,-1.745l0.775,0c0.155,0 0.273,0.015 0.354,0.047c0.082,0.031 0.146,0.086 0.194,0.166c0.049,0.079 0.072,0.167 0.072,0.263c0,0.123 -0.039,0.229 -0.119,0.313c-0.08,0.085 -0.205,0.139 -0.372,0.162c0.061,0.029 0.107,0.058 0.139,0.087c0.067,0.062 0.132,0.139 0.192,0.232l0.304,0.475l-0.292,0l-0.23,-0.364c-0.067,-0.104 -0.123,-0.184 -0.167,-0.24c-0.043,-0.055 -0.082,-0.094 -0.116,-0.116c-0.035,-0.022 -0.071,-0.037 -0.106,-0.047c-0.026,-0.005 -0.069,-0.009 -0.129,-0.009l-0.268,0l0,0.776l-0.231,0ZM69.792,1.663l0.497,0c0.105,0 0.188,-0.011 0.247,-0.033c0.06,-0.022 0.106,-0.056 0.136,-0.104c0.031,-0.048 0.046,-0.101 0.046,-0.157c0,-0.082 -0.029,-0.15 -0.088,-0.203c-0.062,-0.054 -0.157,-0.08 -0.285,-0.08l-0.553,0l0,0.577Z" style="fill:#1b1b1b;fill-rule:nonzero;"/><path d="M70.203,3.597c-0.992,0 -1.799,-0.806 -1.799,-1.798c0,-0.993 0.807,-1.799 1.799,-1.799c0.991,0 1.797,0.806 1.797,1.799c0,0.992 -0.806,1.798 -1.797,1.798ZM70.203,0.225c-0.868,0 -1.574,0.706 -1.574,1.574c0,0.867 0.706,1.573 1.574,1.573c0.868,0 1.573,-0.706 1.573,-1.573c0,-0.868 -0.705,-1.574 -1.573,-1.574Z" style="fill:#1b1b1b;fill-rule:nonzero;"/><path d="M0,32.707l0.343,0l0.841,2.73l0.842,-2.73l0.342,0l0.823,2.682l0.828,-2.682l0.343,0l-1.021,3.232l-0.315,0l-0.838,-2.663l-0.839,2.663l-0.333,0l-1.016,-3.232Z" style="fill:#1b1b1b;fill-rule:nonzero;"/><path d="M4.902,35.939l0,-3.339l0.343,0l0,1.032c0.239,-0.103 0.477,-0.154 0.715,-0.154c0.29,0 0.515,0.09 0.674,0.268c0.158,0.179 0.238,0.432 0.238,0.758l0,1.435l-0.343,0l0,-1.435c0,-0.452 -0.202,-0.678 -0.606,-0.678c-0.221,0 -0.447,0.049 -0.678,0.147l0,1.966l-0.343,0Z" style="fill:#1b1b1b;fill-rule:nonzero;"/><path d="M7.428,34.76l0,-0.035c0,-0.831 0.345,-1.247 1.037,-1.247c0.145,0 0.276,0.023 0.393,0.069c0.118,0.047 0.211,0.102 0.279,0.164c0.07,0.064 0.13,0.147 0.183,0.248c0.053,0.102 0.09,0.188 0.113,0.26c0.022,0.071 0.039,0.156 0.051,0.258c0.013,0.097 0.018,0.159 0.018,0.184l0,0.104l-0.008,0.17l-1.723,0c0.023,0.243 0.095,0.42 0.218,0.529c0.124,0.11 0.307,0.165 0.551,0.165c0.342,0 0.613,-0.06 0.811,-0.18l0,0.36c-0.228,0.112 -0.505,0.168 -0.83,0.168c-0.004,0 -0.01,0 -0.013,0c-0.14,0 -0.267,-0.017 -0.382,-0.051c-0.116,-0.034 -0.229,-0.093 -0.341,-0.177c-0.112,-0.083 -0.199,-0.209 -0.262,-0.377c-0.064,-0.168 -0.095,-0.372 -0.095,-0.612ZM7.771,34.626l1.389,0c0,-0.055 -0.008,-0.117 -0.021,-0.186c-0.013,-0.067 -0.039,-0.154 -0.078,-0.261c-0.04,-0.106 -0.112,-0.195 -0.214,-0.266c-0.103,-0.071 -0.23,-0.106 -0.382,-0.106c-0.235,0 -0.406,0.062 -0.512,0.187c-0.107,0.124 -0.167,0.335 -0.182,0.632Z" style="fill:#1b1b1b;fill-rule:nonzero;"/><path d="M10.08,35.939l0,-2.228c0.356,-0.152 0.74,-0.229 1.149,-0.229l0,0.329c-0.259,0.007 -0.528,0.049 -0.807,0.127l0,2.001l-0.342,0Z" style="fill:#1b1b1b;fill-rule:nonzero;"/><path d="M11.561,34.76l0,-0.035c0,-0.831 0.347,-1.247 1.038,-1.247c0.146,0 0.276,0.023 0.393,0.069c0.118,0.047 0.212,0.102 0.281,0.164c0.068,0.064 0.13,0.147 0.181,0.248c0.053,0.102 0.091,0.188 0.112,0.26c0.023,0.071 0.041,0.156 0.053,0.258c0.012,0.097 0.017,0.159 0.017,0.184l0,0.104l-0.009,0.17l-1.721,0c0.022,0.243 0.094,0.42 0.218,0.529c0.124,0.11 0.307,0.165 0.551,0.165c0.343,0 0.613,-0.06 0.81,-0.18l0,0.36c-0.228,0.112 -0.505,0.168 -0.83,0.168c-0.004,0 -0.008,0 -0.013,0c-0.139,0 -0.266,-0.017 -0.381,-0.051c-0.116,-0.034 -0.229,-0.093 -0.341,-0.177c-0.112,-0.083 -0.199,-0.209 -0.262,-0.377c-0.063,-0.168 -0.097,-0.372 -0.097,-0.612ZM11.906,34.626l1.388,0c0,-0.055 -0.006,-0.117 -0.02,-0.186c-0.013,-0.067 -0.039,-0.154 -0.079,-0.261c-0.039,-0.106 -0.11,-0.195 -0.214,-0.266c-0.102,-0.071 -0.229,-0.106 -0.382,-0.106c-0.233,0 -0.405,0.062 -0.511,0.187c-0.105,0.124 -0.166,0.335 -0.182,0.632Z" style="fill:#1b1b1b;fill-rule:nonzero;"/><path d="M15.789,34.32c0,-1.104 0.491,-1.656 1.471,-1.656c0.338,0 0.659,0.062 0.963,0.187l0,0.336c-0.301,-0.129 -0.611,-0.194 -0.926,-0.194c-0.403,0 -0.696,0.106 -0.883,0.319c-0.187,0.213 -0.281,0.55 -0.281,1.008c0,0.459 0.094,0.796 0.281,1.008c0.187,0.213 0.48,0.32 0.883,0.32c0.322,0 0.631,-0.064 0.926,-0.19l0,0.336c-0.303,0.122 -0.62,0.183 -0.952,0.183c-0.005,0 -0.008,0 -0.011,0c-0.98,0 -1.471,-0.553 -1.471,-1.657Z" style="fill:#1b1b1b;fill-rule:nonzero;"/><path d="M18.76,35.356c-0.067,-0.173 -0.1,-0.383 -0.1,-0.629c0,-0.246 0.033,-0.455 0.1,-0.628c0.066,-0.173 0.156,-0.302 0.27,-0.388c0.115,-0.084 0.23,-0.144 0.349,-0.18c0.118,-0.035 0.249,-0.053 0.391,-0.053c0.143,0 0.275,0.018 0.395,0.053c0.119,0.036 0.235,0.096 0.351,0.18c0.114,0.086 0.204,0.215 0.27,0.388c0.066,0.173 0.101,0.382 0.101,0.628c0,0.246 -0.035,0.456 -0.101,0.629c-0.066,0.173 -0.156,0.301 -0.27,0.386c-0.116,0.086 -0.232,0.146 -0.351,0.181c-0.12,0.036 -0.252,0.054 -0.395,0.054c-0.142,0 -0.273,-0.018 -0.391,-0.054c-0.119,-0.035 -0.234,-0.095 -0.349,-0.181c-0.114,-0.085 -0.204,-0.213 -0.27,-0.386ZM19.185,34.02c-0.121,0.148 -0.183,0.384 -0.183,0.707c0,0.324 0.062,0.559 0.183,0.708c0.123,0.148 0.318,0.222 0.587,0.222c0.269,0 0.465,-0.074 0.586,-0.22c0.124,-0.146 0.185,-0.383 0.185,-0.71c0,-0.325 -0.061,-0.563 -0.185,-0.71c-0.121,-0.146 -0.317,-0.22 -0.586,-0.22c-0.269,0 -0.464,0.074 -0.587,0.223Z" style="fill:#1b1b1b;fill-rule:nonzero;"/><path d="M21.432,35.939l0,-2.224c0.31,-0.158 0.644,-0.237 1.002,-0.237c0.297,0 0.529,0.078 0.693,0.232c0.164,0.154 0.247,0.372 0.247,0.653l0,1.576l-0.344,0l0,-1.576c0,-0.068 -0.007,-0.129 -0.02,-0.181c-0.015,-0.053 -0.041,-0.11 -0.082,-0.169c-0.04,-0.06 -0.104,-0.106 -0.194,-0.138c-0.089,-0.033 -0.201,-0.049 -0.337,-0.049c-0.2,0 -0.406,0.032 -0.624,0.097l0,2.016l-0.341,0Z" style="fill:#1b1b1b;fill-rule:nonzero;"/><path d="M23.796,33.84l0,-0.319l0.414,0l0,-0.684l0.344,0l0,0.684l0.61,0l0,0.319l-0.61,0l0,1.474c0,0.123 0.024,0.21 0.074,0.259c0.051,0.05 0.138,0.075 0.265,0.075c0.098,0 0.187,-0.019 0.271,-0.057l0,0.329c-0.099,0.038 -0.2,0.057 -0.3,0.057c-0.005,0 -0.008,0 -0.011,0c-0.064,0 -0.127,-0.008 -0.186,-0.022c-0.06,-0.014 -0.128,-0.042 -0.205,-0.084c-0.075,-0.041 -0.137,-0.112 -0.181,-0.21c-0.048,-0.098 -0.071,-0.22 -0.071,-0.366l0,-1.455l-0.414,0Z" style="fill:#1b1b1b;fill-rule:nonzero;"/><path d="M25.562,34.76l0,-0.035c0,-0.831 0.345,-1.247 1.037,-1.247c0.143,0 0.275,0.023 0.393,0.069c0.117,0.047 0.209,0.102 0.279,0.164c0.07,0.064 0.13,0.147 0.182,0.248c0.053,0.102 0.09,0.188 0.112,0.26c0.023,0.071 0.04,0.156 0.052,0.258c0.013,0.097 0.017,0.159 0.017,0.184l0,0.104l-0.008,0.17l-1.721,0c0.021,0.243 0.094,0.42 0.217,0.529c0.124,0.11 0.307,0.165 0.551,0.165c0.343,0 0.613,-0.06 0.81,-0.18l0,0.36c-0.228,0.112 -0.504,0.168 -0.829,0.168c-0.005,0 -0.009,0 -0.014,0c-0.139,0 -0.266,-0.017 -0.382,-0.051c-0.115,-0.034 -0.228,-0.093 -0.34,-0.177c-0.112,-0.083 -0.199,-0.209 -0.263,-0.377c-0.062,-0.168 -0.093,-0.372 -0.093,-0.612ZM25.905,34.626l1.387,0c0,-0.055 -0.006,-0.117 -0.019,-0.186c-0.014,-0.067 -0.04,-0.154 -0.08,-0.261c-0.039,-0.106 -0.109,-0.195 -0.213,-0.266c-0.103,-0.071 -0.231,-0.106 -0.381,-0.106c-0.235,0 -0.407,0.062 -0.513,0.187c-0.105,0.124 -0.166,0.335 -0.181,0.632Z" style="fill:#1b1b1b;fill-rule:nonzero;"/><path d="M28.227,35.939l0,-2.224c0.31,-0.158 0.644,-0.237 1.002,-0.237c0.298,0 0.529,0.078 0.694,0.232c0.163,0.154 0.245,0.372 0.245,0.653l0,1.576l-0.343,0l0,-1.576c0,-0.068 -0.006,-0.129 -0.02,-0.181c-0.013,-0.053 -0.041,-0.11 -0.081,-0.169c-0.04,-0.06 -0.105,-0.106 -0.194,-0.138c-0.09,-0.033 -0.203,-0.049 -0.338,-0.049c-0.199,0 -0.406,0.032 -0.622,0.097l0,2.016l-0.343,0Z" style="fill:#1b1b1b;fill-rule:nonzero;"/><path d="M30.593,33.84l0,-0.319l0.412,0l0,-0.684l0.344,0l0,0.684l0.612,0l0,0.319l-0.612,0l0,1.474c0,0.123 0.024,0.21 0.074,0.259c0.051,0.05 0.139,0.075 0.266,0.075c0.097,0 0.187,-0.019 0.272,-0.057l0,0.329c-0.101,0.038 -0.202,0.057 -0.302,0.057c-0.005,0 -0.009,0 -0.012,0c-0.063,0 -0.126,-0.008 -0.185,-0.022c-0.06,-0.014 -0.128,-0.042 -0.205,-0.084c-0.075,-0.041 -0.136,-0.112 -0.182,-0.21c-0.047,-0.098 -0.07,-0.22 -0.07,-0.366l0,-1.455l-0.412,0Z" style="fill:#1b1b1b;fill-rule:nonzero;"/><path d="M34.131,35.939l0,-3.232l0.372,0l1.086,1.642l1.092,-1.642l0.371,0l0,3.232l-0.343,0l0,-2.66l-1.12,1.647l-1.115,-1.647l0,2.66l-0.343,0Z" style="fill:#1b1b1b;fill-rule:nonzero;"/><path d="M37.707,34.76l0,-0.035c0,-0.831 0.347,-1.247 1.038,-1.247c0.145,0 0.276,0.023 0.393,0.069c0.117,0.047 0.211,0.102 0.279,0.164c0.07,0.064 0.131,0.147 0.183,0.248c0.052,0.102 0.09,0.188 0.112,0.26c0.022,0.071 0.04,0.156 0.052,0.258c0.012,0.097 0.018,0.159 0.018,0.184l0,0.104l-0.008,0.17l-1.723,0c0.022,0.243 0.094,0.42 0.219,0.529c0.123,0.11 0.307,0.165 0.549,0.165c0.344,0 0.614,-0.06 0.811,-0.18l0,0.36c-0.228,0.112 -0.504,0.168 -0.83,0.168c-0.004,0 -0.008,0 -0.013,0c-0.138,0 -0.266,-0.017 -0.381,-0.051c-0.116,-0.034 -0.23,-0.093 -0.34,-0.177c-0.113,-0.083 -0.199,-0.209 -0.264,-0.377c-0.062,-0.168 -0.095,-0.372 -0.095,-0.612ZM38.051,34.626l1.388,0c0,-0.055 -0.006,-0.117 -0.02,-0.186c-0.012,-0.067 -0.039,-0.154 -0.078,-0.261c-0.039,-0.106 -0.112,-0.195 -0.215,-0.266c-0.102,-0.071 -0.229,-0.106 -0.381,-0.106c-0.235,0 -0.406,0.062 -0.512,0.187c-0.106,0.124 -0.166,0.335 -0.182,0.632Z" style="fill:#1b1b1b;fill-rule:nonzero;"/><path d="M40.236,35.196c0,-0.108 0.019,-0.206 0.06,-0.292c0.039,-0.087 0.086,-0.156 0.145,-0.21c0.057,-0.054 0.129,-0.099 0.217,-0.137c0.089,-0.039 0.166,-0.066 0.234,-0.084c0.068,-0.018 0.149,-0.032 0.242,-0.041c0.094,-0.009 0.16,-0.015 0.2,-0.017c0.04,-0.001 0.085,-0.002 0.14,-0.002l0.38,0.023c0,-0.219 -0.059,-0.376 -0.176,-0.469c-0.115,-0.094 -0.287,-0.141 -0.517,-0.141c-0.255,0 -0.485,0.038 -0.691,0.116l0,-0.339c0.232,-0.083 0.47,-0.125 0.711,-0.125c0.332,0 0.585,0.086 0.759,0.258c0.174,0.17 0.262,0.42 0.262,0.75l0,0.726c0,0.155 -0.035,0.287 -0.106,0.398c-0.07,0.109 -0.161,0.188 -0.27,0.237c-0.11,0.048 -0.215,0.082 -0.31,0.102c-0.098,0.018 -0.192,0.028 -0.287,0.028c-0.073,0 -0.147,-0.005 -0.223,-0.014c-0.077,-0.01 -0.164,-0.031 -0.26,-0.066c-0.097,-0.033 -0.181,-0.078 -0.252,-0.13c-0.071,-0.053 -0.132,-0.129 -0.182,-0.229c-0.05,-0.098 -0.076,-0.212 -0.076,-0.342ZM40.579,35.196c0,0.301 0.215,0.452 0.643,0.452c0.002,0 0.004,0 0.007,0c0.42,0 0.63,-0.146 0.63,-0.438l0,-0.464c-0.105,-0.019 -0.246,-0.028 -0.422,-0.028c-0.571,0 -0.858,0.159 -0.858,0.478Z" style="fill:#1b1b1b;fill-rule:nonzero;"/><path d="M42.85,35.939l0,-2.224c0.312,-0.158 0.646,-0.237 1.003,-0.237c0.298,0 0.529,0.078 0.693,0.232c0.165,0.154 0.247,0.372 0.247,0.653l0,1.576l-0.343,0l0,-1.576c0,-0.068 -0.007,-0.129 -0.021,-0.181c-0.014,-0.053 -0.041,-0.11 -0.081,-0.169c-0.04,-0.06 -0.104,-0.106 -0.193,-0.138c-0.09,-0.033 -0.204,-0.049 -0.339,-0.049c-0.199,0 -0.406,0.032 -0.622,0.097l0,2.016l-0.344,0Z" style="fill:#1b1b1b;fill-rule:nonzero;"/><path d="M45.386,34.177c0,-0.193 0.068,-0.358 0.207,-0.495c0.138,-0.136 0.351,-0.204 0.635,-0.204c0.201,0 0.404,0.049 0.606,0.147l0,0.348c-0.18,-0.111 -0.37,-0.166 -0.569,-0.166c-0.358,0 -0.536,0.123 -0.536,0.37c0,0.084 0.043,0.151 0.13,0.203c0.087,0.052 0.193,0.094 0.318,0.128c0.125,0.034 0.25,0.075 0.374,0.123c0.126,0.047 0.232,0.127 0.319,0.24c0.088,0.113 0.132,0.257 0.132,0.433c0,0.21 -0.077,0.375 -0.23,0.494c-0.156,0.119 -0.368,0.179 -0.64,0.179c-0.262,0 -0.501,-0.061 -0.716,-0.183l0,-0.369c0.227,0.142 0.462,0.214 0.702,0.214c0.36,0 0.54,-0.112 0.54,-0.335c0,-0.12 -0.044,-0.214 -0.129,-0.283c-0.087,-0.067 -0.193,-0.119 -0.318,-0.152c-0.125,-0.034 -0.251,-0.072 -0.376,-0.112c-0.125,-0.04 -0.23,-0.108 -0.319,-0.204c-0.085,-0.096 -0.13,-0.221 -0.13,-0.376Z" style="fill:#1b1b1b;fill-rule:nonzero;"/><path d="M49.192,35.939l0,-3.232l1.05,0c0.701,0 1.051,0.286 1.051,0.861c0,0.09 -0.011,0.174 -0.034,0.251c-0.023,0.078 -0.052,0.14 -0.086,0.186c-0.033,0.046 -0.066,0.086 -0.097,0.119c-0.033,0.035 -0.062,0.058 -0.088,0.07l-0.033,0.025c0.016,0.003 0.035,0.009 0.058,0.018c0.022,0.01 0.064,0.036 0.127,0.078c0.063,0.043 0.117,0.091 0.163,0.146c0.046,0.054 0.088,0.131 0.125,0.23c0.039,0.1 0.058,0.21 0.058,0.329c0,0.613 -0.382,0.919 -1.148,0.919l-1.146,0ZM49.535,34.107l0.782,0c0.192,0 0.346,-0.034 0.461,-0.102c0.116,-0.068 0.173,-0.205 0.173,-0.409c0,-0.211 -0.057,-0.357 -0.169,-0.438c-0.111,-0.082 -0.281,-0.122 -0.509,-0.122l-0.738,0l0,1.071ZM49.535,35.61l0.83,0c0.241,0 0.43,-0.043 0.57,-0.128c0.14,-0.087 0.208,-0.247 0.208,-0.48c0,-0.099 -0.016,-0.184 -0.05,-0.256c-0.033,-0.072 -0.073,-0.127 -0.121,-0.167c-0.049,-0.041 -0.111,-0.071 -0.186,-0.091c-0.075,-0.022 -0.147,-0.036 -0.211,-0.042c-0.065,-0.007 -0.14,-0.01 -0.224,-0.01l-0.816,0l0,1.174Z" style="fill:#1b1b1b;fill-rule:nonzero;"/><path d="M52.072,34.921l0,-1.4l0.344,0l0,1.416c0,0.245 0.051,0.426 0.157,0.539c0.105,0.114 0.269,0.172 0.493,0.172c0.221,0 0.384,-0.058 0.49,-0.172c0.106,-0.113 0.159,-0.294 0.159,-0.539l0,-1.416l0.345,0l0,1.4c0,0.336 -0.088,0.596 -0.261,0.78c-0.172,0.184 -0.418,0.276 -0.733,0.276c-0.317,0 -0.561,-0.092 -0.734,-0.276c-0.173,-0.184 -0.26,-0.444 -0.26,-0.78Z" style="fill:#1b1b1b;fill-rule:nonzero;"/><path d="M54.61,34.177c0,-0.193 0.069,-0.358 0.208,-0.495c0.138,-0.136 0.349,-0.204 0.633,-0.204c0.203,0 0.405,0.049 0.608,0.147l0,0.348c-0.181,-0.111 -0.371,-0.166 -0.57,-0.166c-0.358,0 -0.536,0.123 -0.536,0.37c0,0.084 0.043,0.151 0.13,0.203c0.087,0.052 0.192,0.094 0.317,0.128c0.125,0.034 0.25,0.075 0.376,0.123c0.124,0.047 0.231,0.127 0.319,0.24c0.087,0.113 0.13,0.257 0.13,0.433c0,0.21 -0.076,0.375 -0.23,0.494c-0.154,0.119 -0.366,0.179 -0.638,0.179c-0.262,0 -0.501,-0.061 -0.717,-0.183l0,-0.369c0.227,0.142 0.462,0.214 0.703,0.214c0.36,0 0.54,-0.112 0.54,-0.335c0,-0.12 -0.045,-0.214 -0.13,-0.283c-0.087,-0.067 -0.193,-0.119 -0.318,-0.152c-0.125,-0.034 -0.249,-0.072 -0.375,-0.112c-0.126,-0.04 -0.232,-0.108 -0.319,-0.204c-0.087,-0.096 -0.131,-0.221 -0.131,-0.376Z" style="fill:#1b1b1b;fill-rule:nonzero;"/><path d="M56.774,33.095l0,-0.388l0.381,0l0,0.388l-0.381,0ZM56.794,35.939l0.343,0l0,-2.418l-0.343,0l0,2.418Z" style="fill:#1b1b1b;fill-rule:nonzero;"/><path d="M57.887,35.939l0,-2.224c0.311,-0.158 0.645,-0.237 1.003,-0.237c0.298,0 0.528,0.078 0.693,0.232c0.163,0.154 0.246,0.372 0.246,0.653l0,1.576l-0.343,0l0,-1.576c0,-0.068 -0.006,-0.129 -0.02,-0.181c-0.014,-0.053 -0.042,-0.11 -0.082,-0.169c-0.04,-0.06 -0.104,-0.106 -0.194,-0.138c-0.089,-0.033 -0.202,-0.049 -0.337,-0.049c-0.2,0 -0.408,0.032 -0.622,0.097l0,2.016l-0.344,0Z" style="fill:#1b1b1b;fill-rule:nonzero;"/><path d="M60.426,34.76l0,-0.035c0,-0.831 0.345,-1.247 1.036,-1.247c0.145,0 0.275,0.023 0.393,0.069c0.118,0.047 0.212,0.102 0.281,0.164c0.068,0.064 0.13,0.147 0.182,0.248c0.052,0.102 0.09,0.188 0.111,0.26c0.022,0.071 0.039,0.156 0.052,0.258c0.012,0.097 0.019,0.159 0.019,0.184l0,0.104l-0.009,0.17l-1.722,0c0.02,0.243 0.094,0.42 0.218,0.529c0.123,0.11 0.307,0.165 0.55,0.165c0.344,0 0.613,-0.06 0.809,-0.18l0,0.36c-0.227,0.112 -0.503,0.168 -0.829,0.168c-0.004,0 -0.008,0 -0.013,0c-0.139,0 -0.266,-0.017 -0.38,-0.051c-0.117,-0.034 -0.23,-0.093 -0.342,-0.177c-0.112,-0.083 -0.198,-0.209 -0.262,-0.377c-0.062,-0.168 -0.094,-0.372 -0.094,-0.612ZM60.769,34.626l1.387,0c0,-0.055 -0.007,-0.117 -0.019,-0.186c-0.014,-0.067 -0.04,-0.154 -0.079,-0.261c-0.039,-0.106 -0.11,-0.195 -0.215,-0.266c-0.101,-0.071 -0.228,-0.106 -0.381,-0.106c-0.235,0 -0.406,0.062 -0.511,0.187c-0.106,0.124 -0.168,0.335 -0.182,0.632Z" style="fill:#1b1b1b;fill-rule:nonzero;"/><path d="M62.968,34.177c0,-0.193 0.07,-0.358 0.208,-0.495c0.137,-0.136 0.347,-0.204 0.633,-0.204c0.203,0 0.404,0.049 0.607,0.147l0,0.348c-0.18,-0.111 -0.371,-0.166 -0.57,-0.166c-0.357,0 -0.535,0.123 -0.535,0.37c0,0.084 0.044,0.151 0.13,0.203c0.086,0.052 0.192,0.094 0.317,0.128c0.125,0.034 0.25,0.075 0.376,0.123c0.125,0.047 0.231,0.127 0.318,0.24c0.088,0.113 0.131,0.257 0.131,0.433c0,0.21 -0.077,0.375 -0.231,0.494c-0.154,0.119 -0.366,0.179 -0.639,0.179c-0.262,0 -0.5,-0.061 -0.716,-0.183l0,-0.369c0.228,0.142 0.461,0.214 0.703,0.214c0.36,0 0.54,-0.112 0.54,-0.335c0,-0.12 -0.044,-0.214 -0.13,-0.283c-0.086,-0.067 -0.192,-0.119 -0.318,-0.152c-0.124,-0.034 -0.25,-0.072 -0.374,-0.112c-0.126,-0.04 -0.232,-0.108 -0.319,-0.204c-0.088,-0.096 -0.131,-0.221 -0.131,-0.376Z" style="fill:#1b1b1b;fill-rule:nonzero;"/><path d="M64.988,34.177c0,-0.193 0.07,-0.358 0.208,-0.495c0.138,-0.136 0.349,-0.204 0.634,-0.204c0.202,0 0.405,0.049 0.608,0.147l0,0.348c-0.183,-0.111 -0.373,-0.166 -0.572,-0.166c-0.356,0 -0.534,0.123 -0.534,0.37c0,0.084 0.042,0.151 0.13,0.203c0.087,0.052 0.192,0.094 0.318,0.128c0.125,0.034 0.249,0.075 0.374,0.123c0.125,0.047 0.231,0.127 0.319,0.24c0.088,0.113 0.131,0.257 0.131,0.433c0,0.21 -0.077,0.375 -0.23,0.494c-0.155,0.119 -0.367,0.179 -0.639,0.179c-0.263,0 -0.502,-0.061 -0.716,-0.183l0,-0.369c0.228,0.142 0.461,0.214 0.702,0.214c0.36,0 0.539,-0.112 0.539,-0.335c0,-0.12 -0.042,-0.214 -0.129,-0.283c-0.086,-0.067 -0.193,-0.119 -0.317,-0.152c-0.126,-0.034 -0.25,-0.072 -0.376,-0.112c-0.125,-0.04 -0.232,-0.108 -0.318,-0.204c-0.087,-0.096 -0.132,-0.221 -0.132,-0.376Z" style="fill:#1b1b1b;fill-rule:nonzero;"/></g></svg>