<?xml version="1.0" encoding="UTF-8" standalone="no"?><!DOCTYPE svg PUBLIC "-//W3C//DTD SVG 1.1//EN" "http://www.w3.org/Graphics/SVG/1.1/DTD/svg11.dtd"><svg width="100%" height="100%" viewBox="0 0 685 226" version="1.1" xmlns="http://www.w3.org/2000/svg" xmlns:xlink="http://www.w3.org/1999/xlink" xml:space="preserve" style="fill-rule:evenodd;clip-rule:evenodd;stroke-linejoin:round;stroke-miterlimit:1.41421;"><g><path d="M309.003,97.147l-37.079,-50.588l0,50.588l-5.034,0l0,-58.888l5.121,0l36.904,49.879l0,-49.879l5.034,0l0,58.888l-4.946,0Z" style="fill:#fff;fill-rule:nonzero;"/><path d="M333.028,97.147l0,-58.888l37.342,0l0,4.592l-32.308,0l0,21.804l31.691,0l0,4.588l-31.691,0l0,23.308l32.308,0l0,4.596l-37.342,0Z" style="fill:#fff;fill-rule:nonzero;"/><path d="M402.253,97.147l0,-54.296l-19.246,0l0,-4.592l43.612,0l0,4.592l-19.246,0l0,54.296l-5.12,0Z" style="fill:#fff;fill-rule:nonzero;"/><path d="M436.697,67.748c0,-18.191 13.333,-30.462 29.841,-30.462c9.713,0 16.775,3.887 22.159,10.062l-3.796,2.746c-4.15,-4.954 -10.859,-8.216 -18.363,-8.216c-13.862,0 -24.546,10.508 -24.546,25.87c0,15.184 10.684,25.955 24.546,25.955c7.859,0 14.038,-3.888 17.305,-7.15l0,-14.13l-22.25,0l0,-4.5l27.279,0l0,20.571c-5.209,5.825 -13.063,9.8 -22.334,9.8c-16.508,0 -29.841,-12.362 -29.841,-30.546" style="fill:#fff;fill-rule:nonzero;"/><path d="M506.102,97.147l0,-58.888l37.345,0l0,4.592l-32.312,0l0,21.804l31.696,0l0,4.588l-31.696,0l0,23.308l32.313,0l0,4.596l-37.346,0Z" style="fill:#fff;fill-rule:nonzero;"/><path d="M602.431,97.147l-37.083,-50.588l0,50.588l-5.029,0l0,-58.888l5.116,0l36.909,49.879l0,-49.879l5.033,0l0,58.888l-4.946,0Z" style="fill:#fff;fill-rule:nonzero;"/><path d="M289.756,141.308l-9.183,25.333l18.367,0l-9.184,-25.333Zm16.246,46.35l-3.621,-9.979l-25.25,0l-3.708,9.979l-14.304,0l22.779,-58.888l15.717,0l22.691,58.888l-14.304,0Z" style="fill:#fff;fill-rule:nonzero;"/><path d="M371.873,158.255c0,-10.416 -6.354,-18.454 -18.454,-18.454l-10.683,0l0,36.821l10.683,0c11.654,0 18.454,-8.383 18.454,-18.367m-41.67,29.405l0,-58.888l23.216,0c18.454,0 31.254,11.738 31.254,29.483c0,17.75 -12.8,29.405 -31.254,29.405l-23.216,0Z" style="fill:#fff;fill-rule:nonzero;"/><path d="M449.227,187.658l0,-41.233l-16.6,41.233l-5.475,0l-16.6,-41.233l0,41.233l-12.533,0l0,-58.888l17.566,0l14.305,35.58l14.304,-35.58l17.654,0l0,58.888l-12.621,0Z" style="fill:#fff;fill-rule:nonzero;"/><rect x="477.931" y="128.771" width="12.538" height="58.887" style="fill:#fff;fill-rule:nonzero;"/><path d="M547.154,187.658l-28.075,-38.413l0,38.413l-12.542,0l0,-58.888l12.892,0l27.283,36.996l0,-36.996l12.538,0l0,58.888l-12.096,0Z" style="fill:#fff;fill-rule:nonzero;"/><path d="M602.346,164.176l0,-35.404l12.716,0l0,34.962c0,8.209 4.767,13.859 13.859,13.859c9.1,0 13.775,-5.65 13.775,-13.859l0,-34.962l12.804,0l0,35.316c0,14.655 -8.654,24.63 -26.579,24.63c-17.921,0 -26.575,-10.067 -26.575,-24.542" style="fill:#fff;fill-rule:nonzero;"/><rect x="671.485" y="128.771" width="12.542" height="58.887" style="fill:#fff;fill-rule:nonzero;"/><path d="M0,169.103l64.779,-112.208l32.388,56.104l-64.78,112.2l-32.387,-56.096Z" style="fill:#b2ea7d;fill-rule:nonzero;"/><path d="M97.168,0.801l-32.387,56.096l97.167,168.3l32.391,-56.096l-97.171,-168.3Z" style="fill:#7ac143;fill-rule:nonzero;"/></g></svg>