<?xml version="1.0" standalone="no"?>
<!DOCTYPE svg PUBLIC "-//W3C//DTD SVG 20010904//EN"
 "http://www.w3.org/TR/2001/REC-SVG-20010904/DTD/svg10.dtd">
<svg version="1.0" xmlns="http://www.w3.org/2000/svg"
 width="16.000000pt" height="16.000000pt" viewBox="0 0 16.000000 16.000000"
 preserveAspectRatio="xMidYMid meet">
<metadata>
Created by potrace 1.11, written by Peter Selinger 2001-2013
</metadata>
<g transform="translate(0.000000,16.000000) scale(0.002286,-0.002286)"
fill="#000000" stroke="none">
<path d="M3385 6799 c-60 -104 -120 -208 -132 -230 -12 -22 -35 -62 -52 -89
-17 -28 -31 -52 -31 -55 0 -3 -16 -29 -35 -59 -19 -30 -35 -57 -35 -59 0 -3
-30 -56 -66 -118 -37 -63 -109 -188 -162 -279 -84 -146 -114 -198 -191 -332
-10 -18 -42 -73 -71 -123 -29 -49 -63 -109 -77 -133 -13 -23 -54 -93 -90 -155
-36 -62 -77 -132 -91 -157 -14 -25 -81 -142 -150 -260 -69 -118 -136 -235
-150 -260 -14 -25 -66 -115 -115 -200 -50 -85 -95 -164 -101 -175 -12 -21
-158 -275 -190 -328 -10 -18 -104 -180 -209 -362 -104 -181 -365 -634 -580
-1005 l-389 -675 18 -35 c16 -29 71 -126 104 -180 9 -16 159 -274 199 -344 73
-127 666 -1154 675 -1168 6 -10 13 -18 16 -18 4 1 87 142 221 379 14 25 55 96
91 157 36 61 68 117 71 125 4 8 20 35 35 60 15 25 65 112 112 193 47 81 93
161 104 179 10 18 44 77 76 132 31 55 140 244 242 420 101 176 202 351 224
388 21 38 47 83 58 100 25 44 279 484 304 527 11 19 61 107 112 195 84 145
135 233 189 327 80 141 174 298 180 302 4 3 19 -16 33 -42 28 -52 138 -244
450 -782 113 -195 216 -373 228 -395 12 -22 44 -77 71 -123 27 -45 49 -87 49
-92 0 -6 5 -10 10 -10 6 0 10 -4 10 -9 0 -5 63 -119 141 -253 78 -133 151
-261 163 -283 29 -51 163 -285 175 -305 10 -16 299 -514 342 -589 203 -354
343 -597 346 -601 3 -3 9 2 14 10 14 24 389 671 415 717 13 23 54 93 91 155
36 62 75 129 85 148 10 19 29 53 42 75 13 22 30 51 38 65 8 14 85 147 171 296
115 199 155 276 150 290 -4 11 -54 100 -112 199 -57 99 -112 194 -121 210 -10
17 -61 107 -115 200 -54 94 -173 298 -263 455 -90 157 -196 340 -236 408 -39
67 -79 137 -89 155 -10 18 -54 93 -97 167 -43 74 -187 324 -320 555 -414 718
-472 819 -496 857 -13 21 -24 40 -24 42 0 3 -14 29 -31 58 -18 29 -40 67 -49
83 -31 54 -234 405 -370 640 -72 127 -147 255 -165 285 -18 30 -46 78 -62 106
-90 163 -469 814 -473 814 -3 0 -54 -86 -115 -191z m-402 -2409 c131 -228 249
-431 262 -451 l24 -37 -40 -67 c-21 -37 -39 -69 -39 -71 0 -2 -15 -27 -33 -56
-19 -29 -37 -60 -40 -68 -4 -8 -15 -28 -25 -45 -10 -16 -30 -51 -44 -76 -14
-25 -44 -76 -67 -113 -22 -38 -41 -69 -41 -71 0 -1 -29 -52 -64 -113 -36 -61
-76 -131 -89 -154 -25 -45 -193 -335 -334 -576 -46 -79 -83 -145 -83 -147 0
-2 -22 -40 -50 -85 -27 -45 -50 -83 -50 -85 0 -1 -38 -67 -83 -146 -144 -247
-470 -813 -484 -839 -8 -14 -22 -38 -32 -55 -42 -70 -136 -234 -160 -277 -14
-27 -29 -48 -32 -48 -4 0 -65 100 -135 223 -70 122 -166 287 -212 367 -47 80
-99 170 -115 200 -17 30 -43 75 -58 99 -24 39 -25 47 -14 65 11 19 542 938
639 1106 20 36 41 72 46 80 23 37 130 222 130 225 0 2 18 33 40 69 22 37 53
90 69 119 16 28 70 124 122 212 94 163 174 301 479 830 95 165 191 331 213
369 35 61 41 67 50 50 6 -10 118 -206 250 -434z"/>
</g>
</svg>
