<?xml version="1.0" standalone="no"?><!DOCTYPE svg PUBLIC "-//W3C//DTD SVG 1.1//EN" "http://www.w3.org/Graphics/SVG/1.1/DTD/svg11.dtd"><svg width="100%" height="100%" viewBox="0 0 65 33" version="1.1" xmlns="http://www.w3.org/2000/svg" xmlns:xlink="http://www.w3.org/1999/xlink" xml:space="preserve" style="fill-rule:evenodd;clip-rule:evenodd;stroke-linejoin:round;stroke-miterlimit:1.41421;"><g id="Layer2"><path d="M39.388,19.318c-0.15,0.366 -0.372,0.699 -0.662,0.99c-0.293,0.295 -0.633,0.548 -1.011,0.75c-0.382,0.207 -0.8,0.372 -1.239,0.493c-0.437,0.12 -0.89,0.182 -1.347,0.182c-0.646,0 -1.267,-0.123 -1.845,-0.363c-0.582,-0.241 -1.107,-0.58 -1.566,-1.009c-0.456,-0.428 -0.832,-0.947 -1.118,-1.543c-0.264,-0.548 -0.433,-1.235 -0.502,-1.898l12.775,0l0.027,-0.055c0.02,-0.104 0.036,-0.244 0.047,-0.427c0.01,-0.179 0.015,-0.376 0.015,-0.587c0,-1.016 -0.188,-2.013 -0.558,-2.963c-0.373,-0.949 -0.906,-1.793 -1.588,-2.51c-0.684,-0.715 -1.523,-1.297 -2.496,-1.728c-0.974,-0.431 -2.069,-0.65 -3.251,-0.65c-1.182,0 -2.279,0.213 -3.263,0.635c-0.983,0.421 -1.843,1.003 -2.554,1.727c-0.713,0.724 -1.272,1.579 -1.664,2.538c-0.39,0.959 -0.588,1.992 -0.588,3.066c0,1.076 0.198,2.113 0.588,3.08c0.391,0.971 0.946,1.829 1.648,2.553c0.702,0.726 1.557,1.307 2.541,1.729c0.983,0.42 2.08,0.672 3.263,0.672c0.781,0 1.542,-0.137 2.265,-0.332c0.72,-0.196 1.386,-0.469 1.979,-0.813c0.593,-0.342 1.123,-0.755 1.576,-1.227c0.455,-0.474 0.818,-1.005 1.081,-1.576l0.078,-0.171l-2.577,-0.697l-0.054,0.134ZM35.069,10.229c0.666,0 1.303,0.117 1.893,0.35c0.59,0.233 1.116,0.557 1.563,0.966c0.447,0.408 0.824,0.913 1.12,1.5c0.27,0.536 0.362,0.903 0.433,1.528l-10.038,0c0.069,-0.626 0.232,-0.988 0.486,-1.517c0.276,-0.576 0.642,-1.08 1.09,-1.498c0.446,-0.417 0.971,-0.746 1.561,-0.979c0.59,-0.233 1.227,-0.35 1.892,-0.35Z" style="fill:#fefefe;fill-rule:nonzero;"/><path d="M61.29,3l-18.295,0l0,2.744l12.806,0l-14.636,18.256l18.3,0l0,-2.697l-12.811,0l14.636,-18.303Z" style="fill:#fefefe;fill-rule:nonzero;"/><path d="M18.975,9l4.025,0l0,15l-14.975,0l0,-4l-8.025,0l0,-19l19,0l-0.025,8ZM16.975,9l0.025,-6l-14.994,0l-0.006,15l6.019,0l-0.019,-9l8.975,0Z" style="fill:#fff;"/><path d="M62.845,2.382l0,-1.576l0.699,0c0.14,0 0.247,0.014 0.32,0.043c0.074,0.028 0.132,0.077 0.175,0.149c0.044,0.072 0.065,0.151 0.065,0.238c0,0.111 -0.035,0.207 -0.108,0.282c-0.072,0.077 -0.185,0.126 -0.335,0.147c0.055,0.026 0.096,0.052 0.125,0.078c0.061,0.056 0.119,0.126 0.173,0.21l0.275,0.429l-0.264,0l-0.207,-0.329c-0.061,-0.094 -0.111,-0.166 -0.151,-0.217c-0.039,-0.049 -0.074,-0.085 -0.105,-0.104c-0.031,-0.02 -0.064,-0.034 -0.096,-0.043c-0.023,-0.004 -0.062,-0.008 -0.116,-0.008l-0.242,0l0,0.701l-0.208,0ZM63.053,1.501l0.449,0c0.095,0 0.169,-0.01 0.223,-0.029c0.054,-0.02 0.095,-0.051 0.123,-0.094c0.027,-0.044 0.041,-0.092 0.041,-0.142c0,-0.074 -0.026,-0.136 -0.079,-0.183c-0.056,-0.049 -0.142,-0.073 -0.258,-0.073l-0.499,0l0,0.521Z" style="fill:#fefefe;fill-rule:nonzero;"/><path d="M63.424,3.247c-0.895,0 -1.624,-0.727 -1.624,-1.623c0,-0.896 0.729,-1.624 1.624,-1.624c0.895,0 1.622,0.728 1.622,1.624c0,0.896 -0.727,1.623 -1.622,1.623ZM63.424,0.203c-0.784,0 -1.421,0.637 -1.421,1.421c0,0.783 0.637,1.42 1.421,1.42c0.784,0 1.42,-0.637 1.42,-1.42c0,-0.784 -0.636,-1.421 -1.42,-1.421l0,0Z" style="fill:#fefefe;fill-rule:nonzero;"/><path d="M0,29.526l0.305,0l0.746,2.423l0.748,-2.423l0.303,0l0.731,2.381l0.735,-2.381l0.304,0l-0.906,2.869l-0.28,0l-0.744,-2.364l-0.744,2.364l-0.296,0l-0.902,-2.869l0,0Z" style="fill:#fefefe;fill-rule:nonzero;"/><path d="M4.352,32.395l0,-2.964l0.304,0l0,0.916c0.212,-0.092 0.424,-0.137 0.635,-0.137c0.258,0 0.457,0.08 0.598,0.238c0.141,0.159 0.212,0.383 0.212,0.673l0,1.274l-0.305,0l0,-1.274c0,-0.401 -0.179,-0.602 -0.538,-0.602c-0.196,0 -0.397,0.043 -0.602,0.13l0,1.746l-0.304,0l0,0Z" style="fill:#fefefe;fill-rule:nonzero;"/><path d="M6.594,31.348l0,-0.031c0,-0.738 0.307,-1.107 0.921,-1.107c0.129,0 0.245,0.02 0.349,0.061c0.105,0.042 0.187,0.091 0.247,0.146c0.063,0.057 0.116,0.13 0.163,0.22c0.047,0.091 0.08,0.167 0.1,0.231c0.02,0.063 0.035,0.138 0.046,0.229c0.011,0.086 0.016,0.141 0.016,0.163l0,0.093l-0.008,0.15l-1.529,0c0.02,0.216 0.084,0.373 0.193,0.47c0.11,0.098 0.273,0.147 0.49,0.147c0.303,0 0.544,-0.054 0.719,-0.16l0,0.319c-0.202,0.1 -0.448,0.15 -0.736,0.15c-0.004,0 -0.009,0 -0.012,0c-0.124,0 -0.237,-0.016 -0.339,-0.046c-0.103,-0.03 -0.203,-0.082 -0.303,-0.157c-0.099,-0.074 -0.176,-0.185 -0.232,-0.335c-0.057,-0.149 -0.085,-0.33 -0.085,-0.543l0,0ZM6.899,31.229l1.233,0c0,-0.049 -0.007,-0.104 -0.019,-0.165c-0.011,-0.059 -0.034,-0.137 -0.069,-0.232c-0.035,-0.094 -0.099,-0.173 -0.19,-0.236c-0.091,-0.063 -0.204,-0.094 -0.339,-0.094c-0.209,0 -0.361,0.055 -0.455,0.166c-0.095,0.11 -0.148,0.297 -0.161,0.561l0,0Z" style="fill:#fefefe;fill-rule:nonzero;"/><path d="M8.949,32.395l0,-1.978c0.316,-0.135 0.657,-0.203 1.02,-0.203l0,0.292c-0.23,0.006 -0.469,0.043 -0.717,0.112l0,1.777l-0.303,0l0,0Z" style="fill:#fefefe;fill-rule:nonzero;"/><path d="M10.263,31.348l0,-0.031c0,-0.738 0.308,-1.107 0.922,-1.107c0.13,0 0.245,0.02 0.349,0.061c0.105,0.042 0.188,0.091 0.249,0.146c0.061,0.057 0.116,0.13 0.161,0.22c0.047,0.091 0.081,0.167 0.099,0.231c0.021,0.063 0.037,0.138 0.047,0.229c0.011,0.086 0.016,0.141 0.016,0.163l0,0.093l-0.008,0.15l-1.528,0c0.019,0.216 0.083,0.373 0.193,0.47c0.11,0.098 0.273,0.147 0.489,0.147c0.305,0 0.545,-0.054 0.719,-0.16l0,0.319c-0.202,0.1 -0.448,0.15 -0.736,0.15c-0.004,0 -0.007,0 -0.012,0c-0.123,0 -0.236,-0.016 -0.338,-0.046c-0.103,-0.03 -0.203,-0.082 -0.303,-0.157c-0.099,-0.074 -0.177,-0.185 -0.232,-0.335c-0.056,-0.149 -0.087,-0.33 -0.087,-0.543l0,0ZM10.57,31.229l1.232,0c0,-0.049 -0.005,-0.104 -0.018,-0.165c-0.011,-0.059 -0.034,-0.137 -0.07,-0.232c-0.035,-0.094 -0.098,-0.173 -0.19,-0.236c-0.09,-0.063 -0.203,-0.094 -0.339,-0.094c-0.207,0 -0.36,0.055 -0.454,0.166c-0.093,0.11 -0.147,0.297 -0.161,0.561l0,0Z" style="fill:#fefefe;fill-rule:nonzero;"/><path d="M14.017,30.958c0,-0.981 0.436,-1.471 1.306,-1.471c0.3,0 0.585,0.055 0.855,0.166l0,0.299c-0.267,-0.115 -0.543,-0.173 -0.822,-0.173c-0.358,0 -0.618,0.095 -0.784,0.284c-0.166,0.189 -0.25,0.488 -0.25,0.895c0,0.407 0.084,0.706 0.25,0.894c0.166,0.189 0.426,0.284 0.784,0.284c0.286,0 0.56,-0.056 0.822,-0.168l0,0.298c-0.269,0.108 -0.551,0.163 -0.845,0.163c-0.005,0 -0.008,0 -0.01,0c-0.87,0 -1.306,-0.491 -1.306,-1.471l0,0Z" style="fill:#fefefe;fill-rule:nonzero;"/><path d="M16.654,31.877c-0.059,-0.153 -0.088,-0.34 -0.088,-0.558c0,-0.219 0.029,-0.404 0.088,-0.558c0.059,-0.153 0.139,-0.268 0.24,-0.344c0.102,-0.075 0.204,-0.128 0.31,-0.16c0.105,-0.031 0.221,-0.047 0.347,-0.047c0.127,0 0.244,0.016 0.351,0.047c0.105,0.032 0.208,0.085 0.311,0.16c0.102,0.076 0.181,0.191 0.24,0.344c0.059,0.154 0.09,0.339 0.09,0.558c0,0.218 -0.031,0.405 -0.09,0.558c-0.059,0.154 -0.138,0.267 -0.24,0.343c-0.103,0.076 -0.206,0.13 -0.311,0.161c-0.107,0.032 -0.224,0.048 -0.351,0.048c-0.126,0 -0.242,-0.016 -0.347,-0.048c-0.106,-0.031 -0.208,-0.085 -0.31,-0.161c-0.101,-0.076 -0.181,-0.189 -0.24,-0.343l0,0ZM17.032,30.691c-0.108,0.132 -0.163,0.341 -0.163,0.628c0,0.287 0.055,0.496 0.163,0.628c0.109,0.132 0.282,0.197 0.521,0.197c0.239,0 0.413,-0.065 0.52,-0.195c0.11,-0.129 0.164,-0.34 0.164,-0.63c0,-0.289 -0.054,-0.5 -0.164,-0.63c-0.107,-0.13 -0.281,-0.196 -0.52,-0.196c-0.239,0 -0.412,0.066 -0.521,0.198Z" style="fill:#fefefe;fill-rule:nonzero;"/><path d="M19.027,32.395l0,-1.975c0.275,-0.14 0.571,-0.21 0.889,-0.21c0.264,0 0.47,0.069 0.615,0.206c0.146,0.137 0.22,0.33 0.22,0.58l0,1.399l-0.306,0l0,-1.399c0,-0.061 -0.006,-0.115 -0.018,-0.161c-0.013,-0.047 -0.036,-0.098 -0.072,-0.15c-0.036,-0.053 -0.093,-0.094 -0.173,-0.123c-0.079,-0.029 -0.178,-0.043 -0.299,-0.043c-0.177,0 -0.36,0.028 -0.554,0.086l0,1.79l-0.302,0l0,0Z" style="fill:#fefefe;fill-rule:nonzero;"/><path d="M21.125,30.531l0,-0.283l0.368,0l0,-0.607l0.305,0l0,0.607l0.542,0l0,0.283l-0.542,0l0,1.309c0,0.109 0.021,0.186 0.066,0.23c0.045,0.044 0.122,0.066 0.235,0.066c0.087,0 0.166,-0.016 0.241,-0.05l0,0.292c-0.088,0.034 -0.178,0.051 -0.267,0.051c-0.004,0 -0.007,0 -0.009,0c-0.057,0 -0.113,-0.008 -0.166,-0.02c-0.053,-0.012 -0.113,-0.037 -0.182,-0.075c-0.066,-0.036 -0.121,-0.099 -0.16,-0.186c-0.043,-0.087 -0.063,-0.195 -0.063,-0.325l0,-1.292l-0.368,0l0,0Z" style="fill:#fefefe;fill-rule:nonzero;"/><path d="M22.693,31.348l0,-0.031c0,-0.738 0.306,-1.107 0.921,-1.107c0.127,0 0.244,0.02 0.349,0.061c0.103,0.042 0.185,0.091 0.247,0.146c0.062,0.057 0.116,0.13 0.162,0.22c0.047,0.091 0.08,0.167 0.099,0.231c0.021,0.063 0.036,0.138 0.046,0.229c0.012,0.086 0.015,0.141 0.015,0.163l0,0.093l-0.007,0.15l-1.527,0c0.018,0.216 0.083,0.373 0.192,0.47c0.11,0.098 0.273,0.147 0.489,0.147c0.305,0 0.545,-0.054 0.719,-0.16l0,0.319c-0.202,0.1 -0.447,0.15 -0.736,0.15c-0.004,0 -0.008,0 -0.012,0c-0.123,0 -0.236,-0.016 -0.339,-0.046c-0.102,-0.03 -0.203,-0.082 -0.302,-0.157c-0.099,-0.074 -0.177,-0.185 -0.233,-0.335c-0.055,-0.149 -0.083,-0.33 -0.083,-0.543l0,0ZM22.998,31.229l1.231,0c0,-0.049 -0.005,-0.104 -0.017,-0.165c-0.012,-0.059 -0.036,-0.137 -0.071,-0.232c-0.035,-0.094 -0.097,-0.173 -0.189,-0.236c-0.092,-0.063 -0.205,-0.094 -0.338,-0.094c-0.209,0 -0.362,0.055 -0.456,0.166c-0.093,0.11 -0.147,0.297 -0.16,0.561l0,0Z" style="fill:#fefefe;fill-rule:nonzero;"/><path d="M25.059,32.395l0,-1.975c0.275,-0.14 0.572,-0.21 0.889,-0.21c0.265,0 0.47,0.069 0.617,0.206c0.144,0.137 0.217,0.33 0.217,0.58l0,1.399l-0.304,0l0,-1.399c0,-0.061 -0.006,-0.115 -0.018,-0.161c-0.012,-0.047 -0.037,-0.098 -0.072,-0.15c-0.036,-0.053 -0.093,-0.094 -0.172,-0.123c-0.08,-0.029 -0.181,-0.043 -0.3,-0.043c-0.177,0 -0.361,0.028 -0.553,0.086l0,1.79l-0.304,0l0,0Z" style="fill:#fefefe;fill-rule:nonzero;"/><path d="M27.159,30.531l0,-0.283l0.366,0l0,-0.607l0.306,0l0,0.607l0.543,0l0,0.283l-0.543,0l0,1.309c0,0.109 0.021,0.186 0.065,0.23c0.045,0.044 0.124,0.066 0.236,0.066c0.086,0 0.166,-0.016 0.242,-0.05l0,0.292c-0.09,0.034 -0.18,0.051 -0.268,0.051c-0.005,0 -0.008,0 -0.011,0c-0.056,0 -0.112,-0.008 -0.164,-0.02c-0.053,-0.012 -0.114,-0.037 -0.182,-0.075c-0.067,-0.036 -0.121,-0.099 -0.162,-0.186c-0.041,-0.087 -0.062,-0.195 -0.062,-0.325l0,-1.292l-0.366,0l0,0Z" style="fill:#fefefe;fill-rule:nonzero;"/><path d="M30.3,32.395l0,-2.869l0.331,0l0.964,1.457l0.969,-1.457l0.329,0l0,2.869l-0.304,0l0,-2.362l-0.994,1.462l-0.99,-1.462l0,2.362l-0.305,0l0,0Z" style="fill:#fefefe;fill-rule:nonzero;"/><path d="M33.475,31.348l0,-0.031c0,-0.738 0.308,-1.107 0.921,-1.107c0.129,0 0.245,0.02 0.349,0.061c0.104,0.042 0.188,0.091 0.248,0.146c0.062,0.057 0.116,0.13 0.162,0.22c0.047,0.091 0.08,0.167 0.1,0.231c0.019,0.063 0.035,0.138 0.046,0.229c0.011,0.086 0.016,0.141 0.016,0.163l0,0.093l-0.007,0.15l-1.53,0c0.02,0.216 0.084,0.373 0.195,0.47c0.109,0.098 0.272,0.147 0.487,0.147c0.305,0 0.545,-0.054 0.72,-0.16l0,0.319c-0.202,0.1 -0.447,0.15 -0.737,0.15c-0.003,0 -0.007,0 -0.011,0c-0.123,0 -0.236,-0.016 -0.339,-0.046c-0.103,-0.03 -0.204,-0.082 -0.301,-0.157c-0.101,-0.074 -0.177,-0.185 -0.235,-0.335c-0.055,-0.149 -0.084,-0.33 -0.084,-0.543ZM33.78,31.229l1.233,0c0,-0.049 -0.006,-0.104 -0.018,-0.165c-0.011,-0.059 -0.035,-0.137 -0.069,-0.232c-0.035,-0.094 -0.1,-0.173 -0.191,-0.236c-0.091,-0.063 -0.204,-0.094 -0.339,-0.094c-0.208,0 -0.36,0.055 -0.454,0.166c-0.094,0.11 -0.148,0.297 -0.162,0.561l0,0Z" style="fill:#fefefe;fill-rule:nonzero;"/><path d="M35.72,31.735c0,-0.096 0.017,-0.183 0.053,-0.259c0.035,-0.077 0.077,-0.139 0.129,-0.186c0.051,-0.048 0.115,-0.088 0.193,-0.122c0.079,-0.035 0.147,-0.059 0.207,-0.075c0.061,-0.016 0.133,-0.028 0.215,-0.036c0.084,-0.008 0.142,-0.013 0.178,-0.015c0.035,-0.001 0.075,-0.002 0.124,-0.002l0.337,0.02c0,-0.194 -0.052,-0.333 -0.156,-0.416c-0.102,-0.083 -0.255,-0.125 -0.459,-0.125c-0.226,0 -0.43,0.034 -0.613,0.103l0,-0.301c0.206,-0.074 0.417,-0.111 0.631,-0.111c0.295,0 0.519,0.076 0.674,0.229c0.154,0.151 0.232,0.373 0.232,0.666l0,0.644c0,0.138 -0.031,0.255 -0.094,0.354c-0.062,0.096 -0.143,0.167 -0.239,0.21c-0.098,0.043 -0.191,0.073 -0.276,0.091c-0.087,0.016 -0.17,0.025 -0.254,0.025c-0.065,0 -0.131,-0.005 -0.198,-0.013c-0.069,-0.009 -0.146,-0.027 -0.231,-0.058c-0.086,-0.03 -0.161,-0.07 -0.224,-0.116c-0.063,-0.047 -0.117,-0.114 -0.161,-0.203c-0.045,-0.087 -0.068,-0.188 -0.068,-0.304l0,0ZM36.025,31.735c0,0.267 0.19,0.401 0.57,0.401c0.002,0 0.004,0 0.007,0c0.372,0 0.559,-0.129 0.559,-0.388l0,-0.412c-0.093,-0.017 -0.218,-0.025 -0.375,-0.025c-0.507,0 -0.761,0.141 -0.761,0.424l0,0Z" style="fill:#fefefe;fill-rule:nonzero;"/><path d="M38.041,32.395l0,-1.975c0.277,-0.14 0.573,-0.21 0.89,-0.21c0.265,0 0.47,0.069 0.615,0.206c0.147,0.137 0.22,0.33 0.22,0.58l0,1.399l-0.305,0l0,-1.399c0,-0.061 -0.006,-0.115 -0.019,-0.161c-0.012,-0.047 -0.036,-0.098 -0.071,-0.15c-0.036,-0.053 -0.093,-0.094 -0.172,-0.123c-0.08,-0.029 -0.181,-0.043 -0.301,-0.043c-0.176,0 -0.36,0.028 -0.552,0.086l0,1.79l-0.305,0l0,0Z" style="fill:#fefefe;fill-rule:nonzero;"/><path d="M40.292,30.831c0,-0.172 0.06,-0.318 0.184,-0.44c0.122,-0.121 0.311,-0.181 0.564,-0.181c0.178,0 0.358,0.044 0.538,0.131l0,0.308c-0.16,-0.098 -0.329,-0.147 -0.506,-0.147c-0.317,0 -0.475,0.109 -0.475,0.329c0,0.074 0.038,0.134 0.115,0.18c0.077,0.046 0.171,0.083 0.282,0.113c0.111,0.031 0.222,0.067 0.332,0.11c0.112,0.041 0.206,0.112 0.283,0.213c0.079,0.1 0.118,0.228 0.118,0.384c0,0.186 -0.069,0.333 -0.205,0.439c-0.138,0.105 -0.326,0.159 -0.568,0.159c-0.232,0 -0.444,-0.055 -0.635,-0.163l0,-0.328c0.201,0.127 0.41,0.19 0.623,0.19c0.319,0 0.479,-0.099 0.479,-0.297c0,-0.106 -0.039,-0.19 -0.114,-0.251c-0.077,-0.06 -0.172,-0.106 -0.283,-0.135c-0.111,-0.03 -0.222,-0.064 -0.333,-0.1c-0.111,-0.035 -0.205,-0.095 -0.284,-0.181c-0.075,-0.085 -0.115,-0.196 -0.115,-0.333Z" style="fill:#fefefe;fill-rule:nonzero;"/><path d="M43.671,32.395l0,-2.869l0.932,0c0.622,0 0.933,0.253 0.933,0.764c0,0.08 -0.01,0.154 -0.03,0.223c-0.021,0.069 -0.046,0.124 -0.076,0.165c-0.03,0.041 -0.059,0.076 -0.087,0.106c-0.029,0.031 -0.055,0.051 -0.078,0.062l-0.029,0.022c0.014,0.003 0.031,0.008 0.051,0.016c0.02,0.009 0.057,0.032 0.113,0.069c0.056,0.038 0.104,0.081 0.145,0.13c0.041,0.048 0.078,0.116 0.111,0.204c0.035,0.089 0.051,0.186 0.051,0.292c0,0.544 -0.339,0.816 -1.019,0.816l-1.017,0l0,0ZM43.975,30.768l0.695,0c0.17,0 0.307,-0.03 0.409,-0.09c0.103,-0.061 0.153,-0.182 0.153,-0.363c0,-0.188 -0.05,-0.317 -0.15,-0.389c-0.098,-0.073 -0.249,-0.108 -0.451,-0.108l-0.656,0l0,0.95ZM43.975,32.103l0.737,0c0.214,0 0.382,-0.038 0.506,-0.114c0.125,-0.077 0.185,-0.219 0.185,-0.426c0,-0.088 -0.014,-0.163 -0.044,-0.227c-0.03,-0.064 -0.065,-0.113 -0.108,-0.149c-0.043,-0.036 -0.098,-0.063 -0.165,-0.08c-0.067,-0.02 -0.131,-0.032 -0.187,-0.038c-0.058,-0.006 -0.125,-0.009 -0.199,-0.009l-0.725,0l0,1.043Z" style="fill:#fefefe;fill-rule:nonzero;"/><path d="M46.228,31.491l0,-1.243l0.305,0l0,1.257c0,0.218 0.045,0.378 0.139,0.479c0.094,0.101 0.239,0.152 0.438,0.152c0.196,0 0.341,-0.051 0.435,-0.152c0.094,-0.101 0.141,-0.261 0.141,-0.479l0,-1.257l0.307,0l0,1.243c0,0.298 -0.079,0.529 -0.232,0.693c-0.153,0.163 -0.371,0.245 -0.651,0.245c-0.281,0 -0.498,-0.082 -0.652,-0.245c-0.153,-0.164 -0.23,-0.395 -0.23,-0.693Z" style="fill:#fefefe;fill-rule:nonzero;"/><path d="M48.481,30.831c0,-0.172 0.061,-0.318 0.184,-0.44c0.123,-0.121 0.31,-0.181 0.562,-0.181c0.181,0 0.36,0.044 0.54,0.131l0,0.308c-0.161,-0.098 -0.329,-0.147 -0.506,-0.147c-0.318,0 -0.476,0.109 -0.476,0.329c0,0.074 0.038,0.134 0.116,0.18c0.077,0.046 0.17,0.083 0.281,0.113c0.111,0.031 0.222,0.067 0.334,0.11c0.11,0.041 0.205,0.112 0.283,0.213c0.077,0.1 0.116,0.228 0.116,0.384c0,0.186 -0.068,0.333 -0.205,0.439c-0.136,0.105 -0.325,0.159 -0.566,0.159c-0.233,0 -0.445,-0.055 -0.637,-0.163l0,-0.328c0.202,0.127 0.411,0.19 0.625,0.19c0.319,0 0.479,-0.099 0.479,-0.297c0,-0.106 -0.04,-0.19 -0.116,-0.251c-0.077,-0.06 -0.171,-0.106 -0.282,-0.135c-0.111,-0.03 -0.221,-0.064 -0.333,-0.1c-0.112,-0.035 -0.206,-0.095 -0.283,-0.181c-0.077,-0.085 -0.116,-0.196 -0.116,-0.333l0,0Z" style="fill:#fefefe;fill-rule:nonzero;"/><path d="M50.402,29.87l0,-0.344l0.338,0l0,0.344l-0.338,0ZM50.42,32.395l0.304,0l0,-2.147l-0.304,0l0,2.147Z" style="fill:#fefefe;fill-rule:nonzero;"/><path d="M51.39,32.395l0,-1.975c0.276,-0.14 0.573,-0.21 0.89,-0.21c0.265,0 0.469,0.069 0.616,0.206c0.144,0.137 0.218,0.33 0.218,0.58l0,1.399l-0.304,0l0,-1.399c0,-0.061 -0.006,-0.115 -0.018,-0.161c-0.013,-0.047 -0.038,-0.098 -0.073,-0.15c-0.036,-0.053 -0.092,-0.094 -0.172,-0.123c-0.079,-0.029 -0.18,-0.043 -0.299,-0.043c-0.178,0 -0.363,0.028 -0.553,0.086l0,1.79l-0.305,0l0,0Z" style="fill:#fefefe;fill-rule:nonzero;"/><path d="M53.644,31.348l0,-0.031c0,-0.738 0.306,-1.107 0.92,-1.107c0.128,0 0.244,0.02 0.349,0.061c0.104,0.042 0.188,0.091 0.249,0.146c0.06,0.057 0.115,0.13 0.162,0.22c0.046,0.091 0.08,0.167 0.098,0.231c0.02,0.063 0.035,0.138 0.046,0.229c0.011,0.086 0.017,0.141 0.017,0.163l0,0.093l-0.008,0.15l-1.528,0c0.017,0.216 0.083,0.373 0.193,0.47c0.109,0.098 0.273,0.147 0.488,0.147c0.306,0 0.545,-0.054 0.719,-0.16l0,0.319c-0.202,0.1 -0.447,0.15 -0.736,0.15c-0.004,0 -0.008,0 -0.012,0c-0.123,0 -0.236,-0.016 -0.337,-0.046c-0.104,-0.03 -0.205,-0.082 -0.304,-0.157c-0.099,-0.074 -0.176,-0.185 -0.233,-0.335c-0.055,-0.149 -0.083,-0.33 -0.083,-0.543l0,0ZM53.949,31.229l1.231,0c0,-0.049 -0.006,-0.104 -0.017,-0.165c-0.012,-0.059 -0.036,-0.137 -0.07,-0.232c-0.035,-0.094 -0.098,-0.173 -0.191,-0.236c-0.09,-0.063 -0.202,-0.094 -0.338,-0.094c-0.209,0 -0.361,0.055 -0.454,0.166c-0.094,0.11 -0.149,0.297 -0.161,0.561l0,0Z" style="fill:#fefefe;fill-rule:nonzero;"/><path d="M55.901,30.831c0,-0.172 0.062,-0.318 0.184,-0.44c0.122,-0.121 0.308,-0.181 0.562,-0.181c0.181,0 0.359,0.044 0.539,0.131l0,0.308c-0.16,-0.098 -0.329,-0.147 -0.506,-0.147c-0.317,0 -0.475,0.109 -0.475,0.329c0,0.074 0.039,0.134 0.116,0.18c0.076,0.046 0.17,0.083 0.281,0.113c0.111,0.031 0.222,0.067 0.334,0.11c0.111,0.041 0.205,0.112 0.282,0.213c0.078,0.1 0.116,0.228 0.116,0.384c0,0.186 -0.068,0.333 -0.205,0.439c-0.136,0.105 -0.325,0.159 -0.567,0.159c-0.233,0 -0.444,-0.055 -0.636,-0.163l0,-0.328c0.203,0.127 0.41,0.19 0.625,0.19c0.319,0 0.479,-0.099 0.479,-0.297c0,-0.106 -0.039,-0.19 -0.115,-0.251c-0.077,-0.06 -0.171,-0.106 -0.283,-0.135c-0.11,-0.03 -0.222,-0.064 -0.332,-0.1c-0.112,-0.035 -0.206,-0.095 -0.283,-0.181c-0.078,-0.085 -0.116,-0.196 -0.116,-0.333l0,0Z" style="fill:#fefefe;fill-rule:nonzero;"/><path d="M57.694,30.831c0,-0.172 0.062,-0.318 0.185,-0.44c0.122,-0.121 0.309,-0.181 0.562,-0.181c0.18,0 0.36,0.044 0.54,0.131l0,0.308c-0.162,-0.098 -0.331,-0.147 -0.508,-0.147c-0.316,0 -0.474,0.109 -0.474,0.329c0,0.074 0.038,0.134 0.116,0.18c0.077,0.046 0.17,0.083 0.282,0.113c0.111,0.031 0.221,0.067 0.332,0.11c0.111,0.041 0.205,0.112 0.283,0.213c0.078,0.1 0.117,0.228 0.117,0.384c0,0.186 -0.069,0.333 -0.205,0.439c-0.137,0.105 -0.325,0.159 -0.567,0.159c-0.233,0 -0.446,-0.055 -0.635,-0.163l0,-0.328c0.202,0.127 0.409,0.19 0.623,0.19c0.319,0 0.478,-0.099 0.478,-0.297c0,-0.106 -0.037,-0.19 -0.114,-0.251c-0.077,-0.06 -0.172,-0.106 -0.282,-0.135c-0.112,-0.03 -0.222,-0.064 -0.334,-0.1c-0.11,-0.035 -0.205,-0.095 -0.282,-0.181c-0.077,-0.085 -0.117,-0.196 -0.117,-0.333l0,0Z" style="fill:#fefefe;fill-rule:nonzero;"/></g></svg>