<?xml version="1.0" standalone="no"?><!DOCTYPE svg PUBLIC "-//W3C//DTD SVG 1.1//EN" "http://www.w3.org/Graphics/SVG/1.1/DTD/svg11.dtd"><svg width="100%" height="100%" viewBox="0 0 18 20" version="1.1" xmlns="http://www.w3.org/2000/svg" xmlns:xlink="http://www.w3.org/1999/xlink" xml:space="preserve" style="fill-rule:evenodd;clip-rule:evenodd;stroke-linejoin:round;stroke-miterlimit:1.41421;"><g><clipPath id="_clip1"><rect x="-0.001" y="0" width="18.2" height="20"/></clipPath><g clip-path="url(#_clip1)"><path d="M16,17.2c0,0.441 -0.359,0.8 -0.8,0.8l-12.4,0c-0.441,0 -0.8,-0.359 -0.8,-0.8l0,-8.1c0,-0.442 0.359,-0.8 0.8,-0.8l12.4,0c0.441,0 0.8,0.358 0.8,0.8l0,8.1ZM6.5,2.8c0,-0.441 0.359,-0.8 0.8,-0.8l3.599,0c0.441,0 0.8,0.359 0.8,0.8l0,3.5l-5.199,0l0,-3.5ZM15.2,6.3l-1.501,0l0,-3.5c0,-1.544 -1.256,-2.8 -2.8,-2.8l-3.599,0c-1.544,0 -2.8,1.256 -2.8,2.8l0,3.5l-1.7,0c-1.544,0 -2.8,1.256 -2.8,2.8l0,8.1c0,1.544 1.256,2.8 2.8,2.8l12.4,0c1.544,0 2.8,-1.256 2.8,-2.8l0,-8.1c0,-1.544 -1.256,-2.8 -2.8,-2.8M9.102,10.917c-0.745,-0.002 -1.351,0.6 -1.354,1.345c-0.002,0.344 0.136,0.649 0.347,0.889l-0.008,2.266l2,0.007l0.008,-2.266c0.211,-0.237 0.351,-0.542 0.352,-0.886c0.004,-0.745 -0.599,-1.352 -1.345,-1.355" style="fill:#fff;fill-rule:nonzero;"/></g></g></svg>