<?xml version="1.0" standalone="no"?><!DOCTYPE svg PUBLIC "-//W3C//DTD SVG 1.1//EN" "http://www.w3.org/Graphics/SVG/1.1/DTD/svg11.dtd"><svg width="100%" height="100%" viewBox="0 0 20 19" version="1.1" xmlns="http://www.w3.org/2000/svg" xmlns:xlink="http://www.w3.org/1999/xlink" xml:space="preserve" style="fill-rule:evenodd;clip-rule:evenodd;stroke-linejoin:round;stroke-miterlimit:1.41421;"><g><path d="M6.5,5.5c0,-1.93 1.57,-3.5 3.5,-3.5c1.93,0 3.5,1.57 3.5,3.5c0,1.93 -1.57,3.5 -3.5,3.5c-1.93,0 -3.5,-1.57 -3.5,-3.5M13.574,9.672c1.177,-1.01 1.926,-2.504 1.926,-4.172c0,-3.033 -2.467,-5.5 -5.5,-5.5c-3.033,0 -5.5,2.467 -5.5,5.5c0,1.668 0.749,3.162 1.926,4.172c-3.752,1.442 -6.426,5.075 -6.426,9.328l2,0c0,-4.411 3.589,-8 8,-8c4.411,0 8,3.589 8,8l2,0c0,-4.253 -2.674,-7.886 -6.426,-9.328" style="fill:#fff;fill-rule:nonzero;"/></g></svg>