<svg xmlns="http://www.w3.org/2000/svg" xmlns:xlink="http://www.w3.org/1999/xlink" width="100%" height="100%" viewBox="0 0 292 82">
  <defs>
    <path id="adminui-full_white-a" d="M-0.0002,41.4057 C-0.0002,63.8257 18.1738,81.9997 40.5948,81.9997 C63.0148,81.9997 81.1898,63.8257 81.1898,41.4057 C81.1898,18.9857 63.0148,0.8097 40.5948,0.8097 C18.1738,0.8097 -0.0002,18.9857 -0.0002,41.4057 Z"/>
  </defs>
  <g fill="none" fill-rule="evenodd">
    <path fill="#F97B62" d="M81.19,41.595 C81.19,64.015 63.014,82.19 40.594,82.19 C18.174,82.19 0,64.015 0,41.595 C0,19.175 18.174,1 40.594,1 C63.014,1 81.19,19.175 81.19,41.595"/>
    <g transform="translate(0 .19)">
      <mask id="adminui-full_white-b" fill="#fff">
        <use xlink:href="#adminui-full_white-a"/>
      </mask>
      <polygon fill="#000" points="52.219 22.713 43.442 42.994 47.771 54.958 52.553 67.552 57.382 80.147 77.073 80.147" mask="url(#adminui-full_white-b)"/>
      <polygon fill="#FFF" points="28.854 22.713 3.552 80.895 11.071 80.895 36.373 22.713" mask="url(#adminui-full_white-b)"/>
      <polygon fill="#FFF" points="44.709 22.713 19.407 80.895 26.925 80.895 52.228 22.713" mask="url(#adminui-full_white-b)"/>
    </g>
    <polygon fill="#FFF" points="120.185 13.86 123.274 13.86 123.274 28.432 120.642 28.432 114.037 19.327 114.037 28.432 110.948 28.432 110.948 13.86 113.793 13.86 120.185 22.752"/>
    <path fill="#FFF" d="M131.322 19.4695C130.651 19.4695 130.083 19.6565 129.615 20.0285 129.147 20.4015 128.826 20.9225 128.65 21.5935L134.096 21.5935C133.886 20.9085 133.543 20.3845 133.065 20.0175 132.588 19.6525 132.007 19.4695 131.322 19.4695M137.134 22.7725C137.134 23.0765 137.114 23.3745 137.074 23.6665L128.568 23.6665C128.697 24.4315 129.004 25.0195 129.488 25.4295 129.972 25.8395 130.584 26.0445 131.322 26.0445 131.843 26.0445 132.313 25.9285 132.73 25.6985 133.146 25.4685 133.469 25.1505 133.7 24.7435L136.891 24.7435C136.484 25.9695 135.78 26.9435 134.777 27.6655 133.774 28.3865 132.623 28.7475 131.322 28.7475 130.231 28.7475 129.241 28.4885 128.35 27.9695 127.459 27.4515 126.76 26.7395 126.252 25.8305 125.743 24.9235 125.489 23.9175 125.489 22.8125 125.489 21.7015 125.742 20.6925 126.247 19.7845 126.751 18.8765 127.449 18.1655 128.34 17.6505 129.23 17.1355 130.225 16.8785 131.322 16.8785 132.447 16.8785 133.457 17.1435 134.35 17.6755 135.245 18.2075 135.932 18.9205 136.414 19.8145 136.894 20.7095 137.134 21.6945 137.134 22.7725M144.925 25.7293L146.308 25.7293 146.308 28.4323 144.153 28.4323C142.92 28.4323 141.946 28.0753 141.232 27.3603 140.517 26.6453 140.159 25.6653 140.159 24.4183L140.159 19.6323 138.127 19.6323 138.127 18.9813 142.568 14.2563 143.147 14.2563 143.147 17.1933 146.246 17.1933 146.246 19.6323 143.197 19.6323 143.197 24.0123C143.197 24.5613 143.347 24.9843 143.645 25.2823 143.943 25.5803 144.37 25.7293 144.925 25.7293M153.763 25.4343C154.589 25.4343 155.274 25.1593 155.816 24.6063 156.358 24.0543 156.628 23.3573 156.628 22.5173 156.628 21.6843 156.359 20.9953 155.821 20.4503 155.282 19.9043 154.596 19.6323 153.763 19.6323 152.936 19.6323 152.252 19.9043 151.71 20.4503 151.168 20.9953 150.897 21.6843 150.897 22.5173 150.897 23.3573 151.166 24.0543 151.705 24.6063 152.243 25.1593 152.929 25.4343 153.763 25.4343L153.763 25.4343zM157.624 17.1933L159.596 17.1933 159.596 27.1313C159.596 28.8863 159.084 30.2693 158.061 31.2833 157.038 32.2953 155.636 32.8023 153.854 32.8023 152.329 32.8023 151.06 32.4363 150.043 31.7043 149.028 30.9733 148.391 29.9633 148.133 28.6763L151.152 28.6763C151.314 29.1573 151.648 29.5313 152.152 29.7993 152.657 30.0663 153.207 30.2003 153.803 30.2003 154.596 30.2003 155.263 29.9613 155.805 29.4843 156.347 29.0063 156.618 28.3683 156.618 27.5683L156.618 27.1423C155.662 27.8123 154.592 28.1473 153.407 28.1473 152.377 28.1473 151.434 27.9003 150.577 27.4063 149.72 26.9123 149.046 26.2323 148.555 25.3683 148.064 24.5043 147.818 23.5543 147.818 22.5173 147.818 21.4883 148.064 20.5413 148.555 19.6773 149.046 18.8133 149.72 18.1313 150.577 17.6303 151.434 17.1293 152.377 16.8783 153.407 16.8783 154.864 16.8783 156.107 17.3553 157.136 18.3103L157.624 17.1933zM167.614 19.4695C166.943 19.4695 166.375 19.6565 165.907 20.0285 165.439 20.4015 165.118 20.9225 164.941 21.5935L170.388 21.5935C170.178 20.9085 169.835 20.3845 169.357 20.0175 168.88 19.6525 168.299 19.4695 167.614 19.4695M173.426 22.7725C173.426 23.0765 173.406 23.3745 173.366 23.6665L164.86 23.6665C164.989 24.4315 165.296 25.0195 165.78 25.4295 166.264 25.8395 166.876 26.0445 167.614 26.0445 168.135 26.0445 168.605 25.9285 169.021 25.6985 169.438 25.4685 169.761 25.1505 169.992 24.7435L173.182 24.7435C172.776 25.9695 172.072 26.9435 171.069 27.6655 170.066 28.3865 168.915 28.7475 167.614 28.7475 166.523 28.7475 165.532 28.4885 164.641 27.9695 163.751 27.4515 163.052 26.7395 162.543 25.8305 162.035 24.9235 161.781 23.9175 161.781 22.8125 161.781 21.7015 162.034 20.6925 162.538 19.7845 163.043 18.8765 163.741 18.1655 164.632 17.6505 165.522 17.1355 166.516 16.8785 167.614 16.8785 168.739 16.8785 169.748 17.1435 170.642 17.6755 171.537 18.2075 172.224 18.9205 172.705 19.8145 173.186 20.7095 173.426 21.6945 173.426 22.7725M181.982 16.929C183.256 16.929 184.269 17.354 185.021 18.204 185.773 19.054 186.149 20.195 186.149 21.624L186.149 28.432 183.111 28.432 183.111 22.112C183.111 20.431 182.457 19.592 181.149 19.592 180.37 19.592 179.755 19.854 179.305 20.379 178.854 20.904 178.629 21.62 178.629 22.528L178.629 28.432 175.59 28.432 175.59 17.193 177.674 17.193 178.263 18.585C178.697 18.071 179.237 17.666 179.884 17.371 180.531 17.076 181.23 16.929 181.982 16.929M191.153 23.6419C192.539 23.6419 193.663 24.7659 193.663 26.1519 193.663 27.5379 192.539 28.6629 191.153 28.6629 189.766 28.6629 188.642 27.5379 188.642 26.1519 188.642 24.7659 189.766 23.6419 191.153 23.6419M119.879 44.135L113.45 59.553 126.482 59.553 119.879 44.135zM130.484 68.946L127.251 61.401 112.681 61.401 109.505 68.946 107.388 68.946 118.955 41.344 120.745 41.344 132.641 68.946 130.484 68.946zM147.023 67.0784C149.32 67.0784 151.386 66.5654 153.221 65.5384 155.056 64.5124 156.487 63.0884 157.513 61.2664 158.54 59.4434 159.053 57.3964 159.053 55.1254 159.053 52.8544 158.54 50.8134 157.513 49.0044 156.487 47.1954 155.059 45.7804 153.231 44.7604 151.402 43.7404 149.334 43.2294 147.023 43.2294L140.594 43.2294 140.594 67.0784 147.023 67.0784zM147.082 41.3444C149.75 41.3444 152.153 41.9334 154.29 43.1144 156.426 44.2954 158.091 45.9344 159.285 48.0324 160.478 50.1304 161.075 52.4954 161.075 55.1254 161.075 57.7564 160.474 60.1274 159.275 62.2374 158.075 64.3494 156.41 65.9944 154.28 67.1754 152.15 68.3554 149.75 68.9454 147.082 68.9454L138.592 68.9454 138.592 41.3444 147.082 41.3444z"/>
    <polygon fill="#FFF" points="199.516 68.946 197.495 68.946 193.337 44.963 183.117 67.868 182.481 67.868 172.28 45.002 168.084 68.946 166.063 68.946 170.874 41.344 172.723 41.344 182.77 64.115 192.875 41.344 194.761 41.344"/>
    <polygon fill="#FFF" points="206.526 68.946 208.528 68.946 208.528 41.344 206.526 41.344"/>
    <polygon fill="#FFF" points="236.979 41.344 238.923 41.344 238.923 68.946 237.23 68.946 219.637 44.847 219.637 68.946 217.673 68.946 217.673 41.344 219.483 41.344 236.979 65.327"/>
    <path fill="#FFF" d="M270.017,69.3303 C266.975,69.3303 264.466,68.3363 262.491,66.3473 C260.514,64.3583 259.527,61.8233 259.527,58.7443 L259.527,41.3443 L261.529,41.3443 L261.529,58.6093 C261.529,61.1883 262.321,63.2963 263.906,64.9333 C265.49,66.5683 267.527,67.3873 270.017,67.3873 C272.493,67.3873 274.524,66.5683 276.109,64.9333 C277.693,63.2963 278.486,61.1883 278.486,58.6093 L278.486,41.3443 L280.488,41.3443 L280.488,58.7443 C280.488,61.8233 279.499,64.3583 277.523,66.3473 C275.547,68.3363 273.044,69.3303 270.017,69.3303"/>
    <polygon fill="#FFF" points="289.268 68.946 291.27 68.946 291.27 41.344 289.268 41.344"/>
  </g>
</svg>
