<?xml version="1.0" standalone="no"?>
<!DOCTYPE svg PUBLIC "-//W3C//DTD SVG 20010904//EN"
 "http://www.w3.org/TR/2001/REC-SVG-20010904/DTD/svg10.dtd">
<svg version="1.0" xmlns="http://www.w3.org/2000/svg"
 width="512.000000pt" height="512.000000pt" viewBox="0 0 512.000000 512.000000"
 preserveAspectRatio="xMidYMid meet">
<metadata>
Created by potrace 1.11, written by Peter Selinger 2001-2013
</metadata>
<g transform="translate(0.000000,512.000000) scale(0.100000,-0.100000)"
fill="#000000" stroke="none">
<path d="M1243 2633 c-392 -901 -715 -1646 -719 -1656 -6 -16 6 -17 192 -15
l199 3 717 1650 c395 907 718 1651 718 1652 0 2 -89 3 -198 3 l-197 0 -712
-1637z"/>
<path d="M2046 2623 c-394 -907 -716 -1651 -716 -1656 0 -4 88 -6 197 -5 l196
3 463 1065 c255 585 465 1058 468 1050 3 -8 59 -163 125 -345 101 -281 281
-756 599 -1590 l69 -180 567 -3 c425 -2 566 1 566 9 0 9 -1341 3118 -1411
3272 l-12 27 -197 0 -197 0 -717 -1647z"/>
</g>
</svg>
