<?xml version="1.0" standalone="no"?>
<!DOCTYPE svg PUBLIC "-//W3C//DTD SVG 20010904//EN"
 "http://www.w3.org/TR/2001/REC-SVG-20010904/DTD/svg10.dtd">
<svg version="1.0" xmlns="http://www.w3.org/2000/svg"
 width="700.000000pt" height="700.000000pt" viewBox="0 0 700.000000 700.000000"
 preserveAspectRatio="xMidYMid meet">
<metadata>
Created by potrace 1.11, written by Peter Selinger 2001-2013
</metadata>
<g transform="translate(0.000000,700.000000) scale(0.100000,-0.100000)"
fill="#000000" stroke="none">
<path d="M0 3500 l0 -3500 3500 0 3500 0 0 3500 0 3500 -3500 0 -3500 0 0
-3500z m3240 1963 c-1 -5 -380 -879 -843 -1943 l-842 -1935 -228 -3 c-125 -1
-227 1 -227 4 0 8 1655 3815 1676 3857 l15 27 224 0 c124 0 225 -3 225 -7z
m1780 -1925 c459 -1062 837 -1934 838 -1939 2 -5 -278 -8 -659 -7 l-662 3
-129 335 c-280 731 -552 1452 -673 1790 -71 195 -131 358 -135 363 -3 4 -251
-556 -551 -1245 l-545 -1253 -227 -3 c-125 -1 -227 1 -227 5 0 11 1672 3856
1683 3871 7 9 65 12 231 12 l221 -1 835 -1931z"/>
</g>
</svg>
